# Blender 4.1.1
# www.blender.org
mtllib bomba.mtl
o Sphere
v -0.021142 1.305345 -0.384273
v -0.021142 1.109864 -0.571469
v -0.021142 0.854455 -0.672780
v -0.021142 0.578002 -0.672780
v -0.021142 0.322592 -0.571469
v 0.030331 1.411139 -0.129612
v 0.125440 1.305345 -0.355579
v 0.198233 1.109864 -0.528526
v 0.237628 0.854455 -0.622125
v 0.237628 0.578002 -0.622125
v 0.198233 0.322592 -0.528526
v 0.125440 0.127111 -0.355579
v 0.030331 0.021317 -0.129612
v 0.073967 1.411139 -0.100918
v 0.249705 1.305345 -0.273865
v 0.384209 1.109864 -0.406234
v 0.457003 0.854455 -0.477871
v 0.457003 0.578002 -0.477871
v 0.384209 0.322592 -0.406234
v 0.249705 0.127111 -0.273865
v 0.073967 0.021317 -0.100918
v -0.021142 1.424753 -0.007320
v 0.103124 1.411139 -0.057975
v 0.332737 1.305345 -0.151573
v 0.508475 1.109864 -0.223210
v 0.603584 0.854455 -0.261980
v 0.603584 0.578002 -0.261980
v 0.508475 0.322592 -0.223210
v 0.332737 0.127111 -0.151573
v 0.103124 0.021317 -0.057975
v 0.113362 1.411139 -0.007320
v 0.361894 1.305345 -0.007320
v 0.552111 1.109864 -0.007320
v 0.655056 0.854455 -0.007320
v 0.655056 0.578002 -0.007320
v 0.552111 0.322592 -0.007320
v 0.361894 0.127111 -0.007320
v 0.113362 0.021317 -0.007320
v 0.103124 1.411139 0.043336
v 0.332737 1.305345 0.136934
v 0.508475 1.109864 0.208571
v 0.603584 0.854455 0.247341
v 0.603584 0.578002 0.247341
v 0.508475 0.322592 0.208571
v 0.332737 0.127111 0.136934
v 0.103124 0.021317 0.043336
v 0.073967 1.411139 0.086279
v 0.249705 1.305345 0.259226
v 0.384209 1.109864 0.391595
v 0.457003 0.854455 0.463232
v 0.457003 0.578002 0.463232
v 0.384209 0.322592 0.391595
v 0.249705 0.127111 0.259226
v 0.073967 0.021317 0.086279
v 0.030331 1.411139 0.114973
v 0.125439 1.305345 0.340939
v 0.198233 1.109864 0.513887
v 0.237628 0.854455 0.607485
v 0.237628 0.578002 0.607485
v 0.198233 0.322592 0.513887
v 0.125439 0.127111 0.340939
v 0.030331 0.021317 0.114973
v -0.021142 1.411139 0.125049
v -0.021142 1.305345 0.369633
v -0.021142 1.109864 0.556830
v -0.021142 0.854455 0.658140
v -0.021142 0.578002 0.658140
v -0.021142 0.322592 0.556830
v -0.021142 0.127111 0.369633
v -0.021142 0.021317 0.125049
v -0.072614 1.411139 0.114973
v -0.167723 1.305345 0.340939
v -0.240516 1.109864 0.513887
v -0.279912 0.854455 0.607485
v -0.279912 0.578002 0.607485
v -0.240516 0.322592 0.513887
v -0.167723 0.127111 0.340939
v -0.072614 0.021317 0.114973
v -0.116251 1.411139 0.086279
v -0.291989 1.305345 0.259226
v -0.426493 1.109864 0.391594
v -0.499286 0.854455 0.463232
v -0.499286 0.578002 0.463232
v -0.426493 0.322592 0.391594
v -0.291989 0.127111 0.259226
v -0.116251 0.021317 0.086279
v -0.021142 0.007703 -0.007320
v -0.145407 1.411139 0.043336
v -0.375020 1.305345 0.136934
v -0.550758 1.109864 0.208571
v -0.645867 0.854455 0.247341
v -0.645867 0.578002 0.247341
v -0.550758 0.322592 0.208571
v -0.375020 0.127111 0.136934
v -0.145407 0.021317 0.043336
v -0.155646 1.411139 -0.007320
v -0.404177 1.305345 -0.007320
v -0.594395 1.109864 -0.007320
v -0.697340 0.854455 -0.007320
v -0.697340 0.578002 -0.007320
v -0.594395 0.322592 -0.007320
v -0.404177 0.127111 -0.007320
v -0.155646 0.021317 -0.007320
v -0.145407 1.411139 -0.057975
v -0.375020 1.305345 -0.151573
v -0.550758 1.109864 -0.223210
v -0.645867 0.854455 -0.261980
v -0.645867 0.578002 -0.261980
v -0.550758 0.322592 -0.223210
v -0.375020 0.127111 -0.151573
v -0.145407 0.021317 -0.057975
v -0.116251 1.411139 -0.100918
v -0.291989 1.305345 -0.273865
v -0.426493 1.109864 -0.406234
v -0.499286 0.854455 -0.477871
v -0.499286 0.578002 -0.477871
v -0.426493 0.322592 -0.406234
v -0.291989 0.127111 -0.273865
v -0.116251 0.021317 -0.100918
v -0.072614 1.411139 -0.129612
v -0.167723 1.305345 -0.355578
v -0.240516 1.109864 -0.528526
v -0.279911 0.854455 -0.622124
v -0.279911 0.578002 -0.622124
v -0.240516 0.322592 -0.528526
v -0.167723 0.127111 -0.355578
v -0.072614 0.021317 -0.129612
v -0.021142 1.411139 -0.139688
v -0.021142 0.127111 -0.384272
v -0.021142 0.021317 -0.139688
v -0.023042 1.425463 -0.020417
v -0.024573 1.537820 -0.010994
v -0.013792 1.425954 -0.016810
v -0.019011 1.537748 -0.003232
v -0.009960 1.425690 -0.008198
v -0.020964 1.536997 0.005879
v -0.013792 1.424827 0.000374
v -0.029289 1.536007 0.011004
v -0.023042 1.423869 0.003886
v -0.034394 1.535607 0.010977
v -0.032293 1.423379 0.000279
v -0.042719 1.535294 0.005768
v -0.036125 1.423642 -0.008333
v -0.044673 1.535739 -0.003364
v -0.032293 1.424505 -0.016905
v -0.039110 1.536682 -0.011068
vn 0.0775 -0.9151 -0.3958
vn -0.1921 -0.0000 -0.9814
vn 0.1921 -0.0000 -0.9814
vn 0.1790 -0.3628 -0.9145
vn 0.3308 0.9166 -0.2246
vn 0.5117 -0.3641 -0.7782
vn 0.0200 0.9946 -0.1023
vn 0.8273 -0.0000 -0.5617
vn 0.1400 -0.6848 -0.7151
vn 0.0570 0.9946 -0.0867
vn 0.0775 0.9151 -0.3958
vn 0.2208 -0.9157 -0.3358
vn 0.5494 -0.0000 -0.8355
vn 0.3996 0.6864 -0.6076
vn 0.7699 -0.3660 -0.5227
vn 0.5999 0.6886 -0.4073
vn 0.9802 -0.0000 -0.1981
vn 0.0570 -0.9946 -0.0867
vn 0.3904 0.9172 -0.0789
vn 0.3308 -0.9166 -0.2246
vn 0.9116 0.3674 -0.1843
vn 0.5999 -0.6886 -0.4073
vn 0.0854 0.9947 -0.0579
vn 0.7093 0.6902 -0.1434
vn 0.9802 -0.0000 0.1981
vn 0.9116 -0.3674 -0.1843
vn 0.0854 -0.9947 -0.0579
vn 0.7093 0.6902 0.1434
vn 0.3904 -0.9172 -0.0789
vn 0.9116 0.3674 0.1843
vn 0.7093 -0.6902 -0.1434
vn 0.3904 0.9172 0.0789
vn 0.1007 0.9947 -0.0204
vn 0.8273 -0.0000 0.5617
vn 0.7093 -0.6902 0.1434
vn 0.9116 -0.3674 0.1843
vn 0.5999 0.6886 0.4073
vn 0.3904 -0.9172 0.0789
vn 0.7699 0.3660 0.5227
vn 0.3308 0.9166 0.2246
vn 0.1007 0.9947 0.0204
vn 0.1007 -0.9947 -0.0204
vn 0.5494 -0.0000 0.8355
vn 0.5999 -0.6886 0.4073
vn 0.7699 -0.3660 0.5227
vn 0.2208 0.9157 0.3358
vn 0.3308 -0.9166 0.2246
vn 0.5117 0.3641 0.7782
vn 0.0854 0.9947 0.0579
vn 0.1007 -0.9947 0.0204
vn 0.1921 -0.0000 0.9814
vn 0.3996 -0.6864 0.6076
vn 0.5117 -0.3641 0.7782
vn 0.3996 0.6864 0.6076
vn 0.0775 0.9151 0.3958
vn 0.1790 0.3628 0.9145
vn 0.0570 0.9946 0.0867
vn 0.2208 -0.9157 0.3358
vn 0.0854 -0.9947 0.0579
vn 0.1400 -0.6848 0.7151
vn 0.1790 -0.3628 0.9145
vn 0.1400 0.6848 0.7151
vn -0.1921 -0.0000 0.9814
vn 0.0775 -0.9151 0.3958
vn 0.0200 0.9946 0.1023
vn -0.1790 0.3628 0.9145
vn 0.0570 -0.9946 0.0867
vn -0.0775 0.9151 0.3958
vn -0.1400 -0.6848 0.7151
vn -0.1790 -0.3628 0.9145
vn -0.1400 0.6848 0.7151
vn -0.5494 -0.0000 0.8355
vn -0.0775 -0.9151 0.3958
vn -0.5117 0.3641 0.7782
vn -0.0200 0.9946 0.1023
vn 0.0200 -0.9946 0.1023
vn -0.2208 0.9157 0.3358
vn -0.3996 -0.6864 0.6076
vn -0.5117 -0.3641 0.7782
vn -0.3996 0.6864 0.6076
vn -0.8273 -0.0000 0.5617
vn -0.2208 -0.9157 0.3358
vn -0.7699 0.3660 0.5227
vn -0.0200 -0.9946 0.1023
vn -0.0570 0.9946 0.0867
vn -0.3308 0.9166 0.2246
vn -0.7699 -0.3660 0.5227
vn -0.5999 0.6886 0.4073
vn -0.9802 -0.0000 0.1981
vn -0.5999 -0.6886 0.4073
vn -0.9116 0.3674 0.1843
vn -0.0570 -0.9946 0.0867
vn -0.0854 0.9947 0.0579
vn -0.3904 0.9172 0.0789
vn -0.3308 -0.9166 0.2246
vn -0.7093 0.6902 0.1434
vn -0.9802 -0.0000 -0.1981
vn -0.7093 -0.6902 0.1434
vn -0.1007 0.9947 0.0204
vn -0.0854 -0.9947 0.0579
vn -0.3904 0.9172 -0.0789
vn -0.9116 -0.3674 0.1843
vn -0.9116 0.3674 -0.1843
vn -0.3904 -0.9172 0.0789
vn -0.7093 0.6902 -0.1434
vn -0.8273 -0.0000 -0.5617
vn -0.7093 -0.6902 -0.1434
vn -0.1007 0.9947 -0.0204
vn -0.3308 0.9166 -0.2246
vn -0.9116 -0.3674 -0.1843
vn -0.1007 -0.9947 0.0204
vn -0.3904 -0.9172 -0.0789
vn -0.7699 0.3660 -0.5227
vn -0.7699 -0.3660 -0.5227
vn -0.5999 0.6886 -0.4073
vn -0.5494 -0.0000 -0.8355
vn -0.5999 -0.6886 -0.4073
vn -0.2208 0.9157 -0.3358
vn -0.1007 -0.9947 -0.0204
vn -0.3308 -0.9166 -0.2246
vn -0.5117 0.3641 -0.7782
vn -0.0854 0.9947 -0.0579
vn -0.5117 -0.3641 -0.7782
vn -0.3996 0.6864 -0.6076
vn -0.0200 -0.9946 -0.1023
vn -0.3996 -0.6864 -0.6076
vn -0.0854 -0.9947 -0.0579
vn -0.0775 0.9151 -0.3958
vn -0.2208 -0.9157 -0.3358
vn -0.1790 0.3628 -0.9145
vn -0.0570 0.9946 -0.0867
vn -0.1400 0.6848 -0.7151
vn -0.1790 -0.3628 -0.9145
vn -0.0570 -0.9946 -0.0867
vn -0.0775 -0.9151 -0.3958
vn -0.1400 -0.6848 -0.7151
vn -0.0200 0.9946 -0.1023
vn 0.5117 0.3641 -0.7782
vn 0.1790 0.3628 -0.9145
vn 0.7699 0.3660 -0.5227
vn 0.0200 -0.9946 -0.1023
vn -0.9098 -0.0511 -0.4118
vn -0.9098 -0.1045 0.4016
vn -0.0782 0.9948 0.0652
vn 0.8085 0.1080 -0.5785
vn -0.0002 -0.0634 0.9980
vn 0.5249 -0.0082 0.8512
vn -0.0014 0.0836 -0.9965
vn 0.9743 0.0692 0.2146
vn 0.0782 -0.9948 -0.0652
vn 0.1400 0.6848 -0.7151
vn 0.3582 0.0829 -0.9300
vn 0.3996 -0.6864 -0.6076
vn 0.2208 0.9157 -0.3358
vn -0.3572 -0.0953 0.9292
vn -0.8095 -0.0187 -0.5868
vn -0.9753 -0.0834 0.2046
vn 0.9109 0.0914 -0.4025
vn 0.3582 -0.0393 0.9328
vn -0.3572 0.0269 -0.9336
vn 0.9109 0.0381 0.4110
vn -0.5258 -0.0905 0.8458
vt 0.687500 0.062500
vt 0.750000 0.187500
vt 0.687500 0.187500
vt 0.750000 0.562500
vt 0.812500 0.437500
vt 0.812500 0.562500
vt 0.750000 0.437500
vt 0.687500 0.562500
vt 0.687500 0.437500
vt 0.687500 0.312500
vt 0.750000 0.312500
vt 0.625000 0.812500
vt 0.562500 0.937500
vt 0.562500 0.812500
vt 0.625000 0.312500
vt 0.625000 0.437500
vt 0.703125 1.000000
vt 0.687500 0.937500
vt 0.750000 0.937500
vt 0.562500 0.562500
vt 0.562500 0.437500
vt 0.640625 1.000000
vt 0.625000 0.937500
vt 0.750000 0.812500
vt 0.625000 0.062500
vt 0.625000 0.187500
vt 0.625000 0.562500
vt 0.687500 0.687500
vt 0.625000 0.687500
vt 0.562500 0.312500
vt 0.562500 0.687500
vt 0.500000 0.562500
vt 0.500000 0.437500
vt 0.671875 0.000000
vt 0.500000 0.937500
vt 0.500000 0.812500
vt 0.562500 0.062500
vt 0.562500 0.187500
vt 0.500000 0.687500
vt 0.578125 1.000000
vt 0.437500 0.562500
vt 0.437500 0.437500
vt 0.500000 0.312500
vt 0.609375 0.000000
vt 0.437500 0.687500
vt 0.437500 0.812500
vt 0.500000 0.062500
vt 0.500000 0.187500
vt 0.437500 0.937500
vt 0.515625 1.000000
vt 0.375000 0.562500
vt 0.375000 0.437500
vt 0.437500 0.312500
vt 0.437500 0.187500
vt 0.375000 0.687500
vt 0.375000 0.812500
vt 0.437500 0.062500
vt 0.375000 0.937500
vt 0.453125 1.000000
vt 0.546875 0.000000
vt 0.312500 0.562500
vt 0.312500 0.437500
vt 0.375000 0.312500
vt 0.375000 0.187500
vt 0.312500 0.812500
vt 0.312500 0.937500
vt 0.375000 0.062500
vt 0.312500 0.687500
vt 0.390625 1.000000
vt 0.484375 0.000000
vt 0.250000 0.562500
vt 0.250000 0.437500
vt 0.312500 0.312500
vt 0.312500 0.187500
vt 0.250000 0.812500
vt 0.250000 0.937500
vt 0.250000 0.687500
vt 0.328125 1.000000
vt 0.312500 0.062500
vt 0.421875 0.000000
vt 0.250000 0.312500
vt 0.250000 0.187500
vt 0.187500 0.562500
vt 0.187500 0.437500
vt 0.250000 0.062500
vt 0.265625 1.000000
vt 0.187500 0.687500
vt 0.359375 0.000000
vt 0.187500 0.937500
vt 0.187500 0.812500
vt 0.187500 0.187500
vt 0.187500 0.312500
vt 0.125000 0.562500
vt 0.125000 0.437500
vt 0.187500 0.062500
vt 0.125000 0.687500
vt 0.203125 1.000000
vt 0.296875 0.000000
vt 0.125000 0.937500
vt 0.125000 0.812500
vt 0.125000 0.187500
vt 0.125000 0.312500
vt 0.062500 0.562500
vt 0.062500 0.437500
vt 0.125000 0.062500
vt 0.062500 0.687500
vt 0.234375 0.000000
vt 0.140625 1.000000
vt 0.062500 0.937500
vt 0.062500 0.812500
vt 0.062500 0.312500
vt 1.000000 0.562500
vt 0.000000 0.437500
vt 0.062500 0.187500
vt 1.000000 0.687500
vt 0.000000 0.562500
vt 0.171875 0.000000
vt 0.078125 1.000000
vt 1.000000 0.937500
vt 0.000000 0.812500
vt 0.062500 0.062500
vt 1.000000 0.812500
vt 0.000000 0.687500
vt 0.937500 0.562500
vt 0.937500 0.437500
vt 0.000000 0.187500
vt 1.000000 0.312500
vt 0.015625 1.000000
vt 0.000000 0.937500
vt 0.109375 0.000000
vt 0.937500 0.812500
vt 0.937500 0.937500
vt 0.000000 0.312500
vt 1.000000 0.437500
vt 0.937500 0.687500
vt 0.000000 0.062500
vt 1.000000 0.187500
vt 0.875000 0.562500
vt 0.875000 0.437500
vt 0.937500 0.312500
vt 0.937500 0.187500
vt 0.953125 1.000000
vt 0.875000 0.812500
vt 0.875000 0.937500
vt 0.046875 0.000000
vt 0.937500 0.062500
vt 0.875000 0.687500
vt 0.875000 0.312500
vt 0.875000 0.187500
vt 0.812500 0.812500
vt 0.812500 0.937500
vt 0.984375 0.000000
vt 1.000000 0.062500
vt 0.875000 0.062500
vt 0.812500 0.687500
vt 0.890625 1.000000
vt 0.812500 0.312500
vt 0.796875 0.000000
vt 0.812500 0.062500
vt 0.750000 0.062500
vt 0.812500 0.187500
vt 0.921875 0.000000
vt 0.828125 1.000000
vt 0.750000 0.687500
vt 0.859375 0.000000
vt 0.765625 1.000000
vt 0.734375 0.000000
vt 0.014612 0.296822
vt 0.580294 0.419706
vt 0.250000 0.500000
vt 0.050447 0.116663
vt 0.510000 0.250000
vt 0.375000 0.500000
vt 0.449553 0.116663
vt 0.485388 0.296822
vt 0.383337 0.449553
vt 0.875000 0.500000
vt 0.296822 0.014612
vt 0.203178 0.014612
vt 0.500000 0.500000
vt 0.625000 0.500000
vt 0.750000 0.490000
vt 0.116663 0.449553
vt 0.750000 0.500000
vt 0.580294 0.080294
vt 0.687500 0.812500
vt 1.000000 0.500000
vt 0.919706 0.419706
vt 0.990000 0.250000
vt 0.750000 0.010000
vt 0.125000 0.500000
vt 0.919706 0.080294
s 0
usemtl Material.002
f 13/1/1 129/2/1 12/3/1
f 3/4/2 124/5/2 123/6/2
f 4/7/3 9/8/3 10/9/3
f 4/7/4 11/10/4 5/11/4
f 15/12/5 23/13/5 24/14/5
f 19/15/6 10/9/6 18/16/6
f 22/17/7 6/18/7 128/19/7
f 18/16/8 26/20/8 27/21/8
f 12/3/9 5/11/9 11/10/9
f 22/22/10 14/23/10 6/18/10
f 6/18/11 1/24/11 128/19/11
f 21/25/12 12/3/12 20/26/12
f 10/9/13 17/27/13 18/16/13
f 8/28/14 15/12/14 16/29/14
f 28/30/15 18/16/15 27/21/15
f 16/29/16 24/14/16 25/31/16
f 27/21/17 34/32/17 35/33/17
f 87/34/18 13/1/18 21/25/18
f 24/14/19 31/35/19 32/36/19
f 30/37/20 20/26/20 29/38/20
f 26/20/21 33/39/21 34/32/21
f 29/38/22 19/15/22 28/30/22
f 22/40/23 23/13/23 14/23/23
f 25/31/24 32/36/24 33/39/24
f 35/33/25 42/41/25 43/42/25
f 36/43/26 27/21/26 35/33/26
f 87/44/27 21/25/27 30/37/27
f 41/45/28 32/36/28 40/46/28
f 38/47/29 29/38/29 37/48/29
f 42/41/30 33/39/30 41/45/30
f 37/48/31 28/30/31 36/43/31
f 40/46/32 31/35/32 39/49/32
f 22/50/33 31/35/33 23/13/33
f 43/42/34 50/51/34 51/52/34
f 37/48/35 44/53/35 45/54/35
f 36/43/36 43/42/36 44/53/36
f 49/55/37 40/46/37 48/56/37
f 38/47/38 45/54/38 46/57/38
f 50/51/39 41/45/39 49/55/39
f 48/56/40 39/49/40 47/58/40
f 22/59/41 39/49/41 31/35/41
f 87/60/42 30/37/42 38/47/42
f 51/52/43 58/61/43 59/62/43
f 45/54/44 52/63/44 53/64/44
f 44/53/45 51/52/45 52/63/45
f 56/65/46 47/58/46 55/66/46
f 46/57/47 53/64/47 54/67/47
f 58/61/48 49/55/48 57/68/48
f 22/69/49 47/58/49 39/49/49
f 87/70/50 38/47/50 46/57/50
f 59/62/51 66/71/51 67/72/51
f 53/64/52 60/73/52 61/74/52
f 52/63/53 59/62/53 60/73/53
f 57/68/54 48/56/54 56/65/54
f 64/75/55 55/66/55 63/76/55
f 66/71/56 57/68/56 65/77/56
f 22/78/57 55/66/57 47/58/57
f 54/67/58 61/74/58 62/79/58
f 87/80/59 46/57/59 54/67/59
f 61/74/60 68/81/60 69/82/60
f 60/73/61 67/72/61 68/81/61
f 65/77/62 56/65/62 64/75/62
f 67/72/63 74/83/63 75/84/63
f 62/79/64 69/82/64 70/85/64
f 22/86/65 63/76/65 55/66/65
f 66/71/66 73/87/66 74/83/66
f 87/88/67 54/67/67 62/79/67
f 64/75/68 71/89/68 72/90/68
f 77/91/69 68/81/69 76/92/69
f 76/92/70 67/72/70 75/84/70
f 65/77/71 72/90/71 73/87/71
f 75/84/72 82/93/72 83/94/72
f 78/95/73 69/82/73 77/91/73
f 74/83/74 81/96/74 82/93/74
f 22/97/75 71/89/75 63/76/75
f 87/98/76 62/79/76 70/85/76
f 72/90/77 79/99/77 80/100/77
f 85/101/78 76/92/78 84/102/78
f 84/102/79 75/84/79 83/94/79
f 73/87/80 80/100/80 81/96/80
f 83/94/81 91/103/81 92/104/81
f 86/105/82 77/91/82 85/101/82
f 82/93/83 90/106/83 91/103/83
f 87/107/84 70/85/84 78/95/84
f 22/108/85 79/99/85 71/89/85
f 80/100/86 88/109/86 89/110/86
f 93/111/87 83/94/87 92/104/87
f 81/96/88 89/110/88 90/106/88
f 92/104/89 99/112/89 100/113/89
f 94/114/90 84/102/90 93/111/90
f 91/103/91 98/115/91 99/116/91
f 87/117/92 78/95/92 86/105/92
f 22/118/93 88/109/93 79/99/93
f 89/110/94 96/119/94 97/120/94
f 95/121/95 85/101/95 94/114/95
f 90/106/96 97/122/96 98/123/96
f 100/113/97 107/124/97 108/125/97
f 102/126/98 93/111/98 101/127/98
f 22/128/99 96/129/99 88/109/99
f 87/130/100 86/105/100 95/121/100
f 105/131/101 96/119/101 104/132/101
f 101/133/102 92/104/102 100/134/102
f 107/124/103 98/115/103 106/135/103
f 103/136/104 94/114/104 102/137/104
f 106/135/105 97/122/105 105/131/105
f 108/125/106 115/138/106 116/139/106
f 102/126/107 109/140/107 110/141/107
f 22/142/108 104/132/108 96/119/108
f 113/143/109 104/132/109 112/144/109
f 101/133/110 108/125/110 109/140/110
f 87/145/111 95/121/111 103/136/111
f 103/136/112 110/141/112 111/146/112
f 115/138/113 106/135/113 114/147/113
f 109/140/114 116/139/114 117/148/114
f 114/147/115 105/131/115 113/143/115
f 116/139/116 123/6/116 124/5/116
f 110/141/117 117/148/117 118/149/117
f 121/150/118 112/144/118 120/151/118
f 87/152/119 103/153/119 111/146/119
f 111/146/120 118/149/120 119/154/120
f 123/6/121 114/147/121 122/155/121
f 22/156/122 112/144/122 104/132/122
f 117/148/123 124/5/123 125/157/123
f 122/155/124 113/143/124 121/150/124
f 87/158/125 127/159/125 130/160/125
f 118/149/126 125/157/126 126/161/126
f 87/162/127 111/146/127 119/154/127
f 1/24/128 120/151/128 128/19/128
f 119/154/129 126/161/129 127/159/129
f 122/155/130 3/4/130 123/6/130
f 22/163/131 120/151/131 112/144/131
f 121/150/132 2/164/132 122/155/132
f 125/157/133 4/7/133 5/11/133
f 87/165/134 119/154/134 127/159/134
f 127/159/135 129/2/135 130/160/135
f 126/161/136 5/11/136 129/2/136
f 22/166/137 128/19/137 120/151/137
f 9/8/138 16/29/138 17/27/138
f 3/4/139 8/28/139 9/8/139
f 17/27/140 25/31/140 26/20/140
f 87/167/141 130/160/141 13/1/141
f 2/164/151 7/186/151 8/28/151
f 20/26/153 11/10/153 19/15/153
f 7/186/154 14/23/154 15/12/154
f 13/1/1 130/160/1 129/2/1
f 3/4/2 4/7/2 124/5/2
f 4/7/3 3/4/3 9/8/3
f 4/7/4 10/9/4 11/10/4
f 15/12/5 14/23/5 23/13/5
f 19/15/6 11/10/6 10/9/6
f 18/16/8 17/27/8 26/20/8
f 12/3/9 129/2/9 5/11/9
f 6/18/11 7/186/11 1/24/11
f 21/25/12 13/1/12 12/3/12
f 10/9/13 9/8/13 17/27/13
f 8/28/14 7/186/14 15/12/14
f 28/30/15 19/15/15 18/16/15
f 16/29/16 15/12/16 24/14/16
f 27/21/17 26/20/17 34/32/17
f 24/14/19 23/13/19 31/35/19
f 30/37/20 21/25/20 20/26/20
f 26/20/21 25/31/21 33/39/21
f 29/38/22 20/26/22 19/15/22
f 25/31/24 24/14/24 32/36/24
f 35/33/25 34/32/25 42/41/25
f 36/43/26 28/30/26 27/21/26
f 41/45/28 33/39/28 32/36/28
f 38/47/29 30/37/29 29/38/29
f 42/41/30 34/32/30 33/39/30
f 37/48/31 29/38/31 28/30/31
f 40/46/32 32/36/32 31/35/32
f 43/42/34 42/41/34 50/51/34
f 37/48/35 36/43/35 44/53/35
f 36/43/36 35/33/36 43/42/36
f 49/55/37 41/45/37 40/46/37
f 38/47/38 37/48/38 45/54/38
f 50/51/39 42/41/39 41/45/39
f 48/56/40 40/46/40 39/49/40
f 51/52/43 50/51/43 58/61/43
f 45/54/44 44/53/44 52/63/44
f 44/53/45 43/42/45 51/52/45
f 56/65/46 48/56/46 47/58/46
f 46/57/47 45/54/47 53/64/47
f 58/61/48 50/51/48 49/55/48
f 59/62/51 58/61/51 66/71/51
f 53/64/52 52/63/52 60/73/52
f 52/63/53 51/52/53 59/62/53
f 57/68/54 49/55/54 48/56/54
f 64/75/55 56/65/55 55/66/55
f 66/71/56 58/61/56 57/68/56
f 54/67/58 53/64/58 61/74/58
f 61/74/60 60/73/60 68/81/60
f 60/73/61 59/62/61 67/72/61
f 65/77/62 57/68/62 56/65/62
f 67/72/63 66/71/63 74/83/63
f 62/79/64 61/74/64 69/82/64
f 66/71/66 65/77/66 73/87/66
f 64/75/68 63/76/68 71/89/68
f 77/91/69 69/82/69 68/81/69
f 76/92/70 68/81/70 67/72/70
f 65/77/71 64/75/71 72/90/71
f 75/84/72 74/83/72 82/93/72
f 78/95/73 70/85/73 69/82/73
f 74/83/74 73/87/74 81/96/74
f 72/90/77 71/89/77 79/99/77
f 85/101/78 77/91/78 76/92/78
f 84/102/79 76/92/79 75/84/79
f 73/87/80 72/90/80 80/100/80
f 83/94/81 82/93/81 91/103/81
f 86/105/82 78/95/82 77/91/82
f 82/93/83 81/96/83 90/106/83
f 80/100/86 79/99/86 88/109/86
f 93/111/87 84/102/87 83/94/87
f 81/96/88 80/100/88 89/110/88
f 92/104/89 91/103/89 99/112/89
f 94/114/90 85/101/90 84/102/90
f 91/103/91 90/106/91 98/115/91
f 89/110/94 88/109/94 96/119/94
f 95/121/95 86/105/95 85/101/95
f 90/106/96 89/110/96 97/122/96
f 100/113/97 99/112/97 107/124/97
f 102/126/98 94/114/98 93/111/98
f 105/131/101 97/120/101 96/119/101
f 101/133/102 93/111/102 92/104/102
f 107/124/103 99/116/103 98/115/103
f 103/136/104 95/121/104 94/114/104
f 106/135/105 98/123/105 97/122/105
f 108/125/106 107/124/106 115/138/106
f 102/126/107 101/127/107 109/140/107
f 113/143/109 105/131/109 104/132/109
f 101/133/110 100/134/110 108/125/110
f 103/136/112 102/137/112 110/141/112
f 115/138/113 107/124/113 106/135/113
f 109/140/114 108/125/114 116/139/114
f 114/147/115 106/135/115 105/131/115
f 116/139/116 115/138/116 123/6/116
f 110/141/117 109/140/117 117/148/117
f 121/150/118 113/143/118 112/144/118
f 111/146/120 110/141/120 118/149/120
f 123/6/121 115/138/121 114/147/121
f 117/148/123 116/139/123 124/5/123
f 122/155/124 114/147/124 113/143/124
f 118/149/126 117/148/126 125/157/126
f 1/24/128 121/150/128 120/151/128
f 119/154/129 118/149/129 126/161/129
f 122/155/130 2/164/130 3/4/130
f 121/150/132 1/24/132 2/164/132
f 125/157/133 124/5/133 4/7/133
f 127/159/135 126/161/135 129/2/135
f 126/161/136 125/157/136 5/11/136
f 9/8/138 8/28/138 16/29/138
f 3/4/139 2/164/139 8/28/139
f 17/27/140 16/29/140 25/31/140
f 2/164/151 1/24/151 7/186/151
f 20/26/153 12/3/153 11/10/153
f 7/186/154 6/18/154 14/23/154
usemtl 
f 144/168/142 145/169/142 143/170/142
f 142/171/143 143/172/143 141/173/143
f 136/174/144 134/175/144 132/176/144
f 134/175/145 133/177/145 132/176/145
f 138/178/146 140/179/146 139/180/146
f 138/178/147 137/181/147 136/174/147
f 131/182/148 146/183/148 132/176/148
f 136/174/149 135/184/149 134/175/149
f 141/185/150 143/172/150 145/169/150
f 131/187/152 132/176/152 133/188/152
f 140/179/155 141/185/155 139/180/155
f 144/168/156 146/183/156 145/169/156
f 142/171/157 144/168/157 143/172/157
f 132/176/144 146/183/144 140/179/144
f 146/183/144 144/168/144 142/171/144
f 140/179/144 146/183/144 142/171/144
f 140/179/144 138/178/144 132/176/144
f 138/178/144 136/174/144 132/176/144
f 134/175/158 135/189/158 133/177/158
f 138/178/159 139/190/159 137/181/159
f 131/182/160 145/191/160 146/183/160
f 136/174/161 137/192/161 135/184/161
f 145/169/150 131/182/150 139/190/150
f 131/182/150 133/188/150 137/192/150
f 133/188/150 135/189/150 137/192/150
f 137/192/150 139/190/150 131/182/150
f 139/190/150 141/185/150 145/169/150
f 140/179/162 142/171/162 141/185/162
